<?xml version="1.0" encoding="UTF-8" standalone="no"?>
<!DOCTYPE svg PUBLIC "-//W3C//DTD SVG 1.1//EN"
 "http://www.w3.org/Graphics/SVG/1.1/DTD/svg11.dtd">
<!-- Generated by graphviz version 9.0.0 (20230911.1827)
 -->
<!-- Pages: 1 -->
<svg width="1521pt" height="1195pt"
 viewBox="0.00 0.00 1520.73 1195.31" xmlns="http://www.w3.org/2000/svg" xmlns:xlink="http://www.w3.org/1999/xlink">
<g id="graph0" class="graph" transform="scale(1 1) rotate(0) translate(4 1191.31)">
<polygon fill="white" stroke="none" points="-4,4 -4,-1191.31 1516.73,-1191.31 1516.73,4 -4,4"/>
<!-- spos -->
<g id="node1" class="node">
<title>spos</title>
<ellipse fill="none" stroke="black" cx="335.86" cy="-858.44" rx="123.74" ry="30.05"/>
<text text-anchor="middle" x="335.86" y="-862.39" font-family="Times,serif" font-size="14.00">Sufficient participants</text>
<text text-anchor="middle" x="335.86" y="-845.14" font-family="Times,serif" font-size="14.00">Organizer set</text>
</g>
<!-- spos&#45;&gt;spos -->
<g id="edge24" class="edge">
<title>spos&#45;&gt;spos</title>
<path fill="none" stroke="black" d="M401.47,-884.32C440.69,-890.07 477.6,-881.44 477.6,-858.44 477.6,-837.68 447.54,-828.62 412.86,-831.28"/>
<polygon fill="black" stroke="black" points="412.52,-827.79 402.97,-832.38 413.3,-834.75 412.52,-827.79"/>
<text text-anchor="middle" x="488.1" y="-853.76" font-family="Times,serif" font-size="14.00">c3|</text>
</g>
<!-- spno -->
<g id="node2" class="node">
<title>spno</title>
<ellipse fill="none" stroke="black" cx="622.86" cy="-589.81" rx="123.74" ry="30.05"/>
<text text-anchor="middle" x="622.86" y="-593.76" font-family="Times,serif" font-size="14.00">Sufficient participants</text>
<text text-anchor="middle" x="622.86" y="-576.51" font-family="Times,serif" font-size="14.00">No organizer</text>
</g>
<!-- spos&#45;&gt;spno -->
<g id="edge1" class="edge">
<title>spos&#45;&gt;spno</title>
<path fill="none" stroke="black" d="M365.98,-829.1C399.1,-797.98 453.9,-746.59 501.36,-702.56 528.68,-677.22 559.59,-648.79 583.4,-626.95"/>
<polygon fill="black" stroke="black" points="585.71,-629.58 590.71,-620.24 580.98,-624.42 585.71,-629.58"/>
<text text-anchor="middle" x="537.11" y="-706.51" font-family="Times,serif" font-size="14.00">c2|m2,m3</text>
</g>
<!-- mpos -->
<g id="node3" class="node">
<title>mpos</title>
<ellipse fill="none" stroke="black" cx="284.86" cy="-143.41" rx="115.26" ry="30.05"/>
<text text-anchor="middle" x="284.86" y="-147.36" font-family="Times,serif" font-size="14.00">Missing participants</text>
<text text-anchor="middle" x="284.86" y="-130.11" font-family="Times,serif" font-size="14.00">Organizer set</text>
</g>
<!-- spos&#45;&gt;mpos -->
<g id="edge2" class="edge">
<title>spos&#45;&gt;mpos</title>
<path fill="none" stroke="black" d="M304.31,-828.96C277.76,-803.13 241,-762.64 220.86,-719.81 167.38,-606.1 180.85,-566.94 169.36,-441.81 158.97,-328.69 154.95,-283.98 220.86,-191.46 223.99,-187.06 227.67,-182.9 231.64,-179.02"/>
<polygon fill="black" stroke="black" points="233.88,-181.71 239.02,-172.44 229.23,-176.48 233.88,-181.71"/>
<text text-anchor="start" x="169.86" y="-403.51" font-family="Times,serif" font-size="14.00">c4|m2</text>
<text text-anchor="middle" x="191.61" y="-386.26" font-family="Times,serif" font-size="14.00">c9|m2</text>
</g>
<!-- fbos -->
<g id="node6" class="node">
<title>fbos</title>
<ellipse fill="none" stroke="black" cx="604.86" cy="-30.05" rx="80.26" ry="30.05"/>
<text text-anchor="middle" x="604.86" y="-34" font-family="Times,serif" font-size="14.00">Fully booked</text>
<text text-anchor="middle" x="604.86" y="-16.75" font-family="Times,serif" font-size="14.00">Organizer set</text>
</g>
<!-- spos&#45;&gt;fbos -->
<g id="edge9" class="edge">
<title>spos&#45;&gt;fbos</title>
<path fill="none" stroke="black" d="M288.55,-830.35C222.02,-788.33 108.86,-700.7 108.86,-590.81 108.86,-590.81 108.86,-590.81 108.86,-142.41 108.86,-60.45 369.9,-38.8 513.24,-33.09"/>
<polygon fill="black" stroke="black" points="513.24,-36.59 523.1,-32.72 512.98,-29.6 513.24,-36.59"/>
<text text-anchor="start" x="108.86" y="-326.01" font-family="Times,serif" font-size="14.00">c3|m7</text>
<text text-anchor="middle" x="135.11" y="-308.76" font-family="Times,serif" font-size="14.00">c12|m7</text>
</g>
<!-- c -->
<g id="node7" class="node">
<title>c</title>
<ellipse fill="none" stroke="black" cx="643.86" cy="-399.56" rx="169.35" ry="42.25"/>
<text text-anchor="middle" x="643.86" y="-412.14" font-family="Times,serif" font-size="14.00">Cancled</text>
<text text-anchor="middle" x="643.86" y="-394.89" font-family="Times,serif" font-size="14.00">Action: Remove all participants</text>
<text text-anchor="middle" x="643.86" y="-377.64" font-family="Times,serif" font-size="14.00">and organizer from event</text>
</g>
<!-- spos&#45;&gt;c -->
<g id="edge23" class="edge">
<title>spos&#45;&gt;c</title>
<path fill="none" stroke="black" d="M337.05,-828.07C341.24,-761.11 360.26,-595.17 446.36,-495.06 467.69,-470.25 497.02,-451.44 526.55,-437.4"/>
<polygon fill="black" stroke="black" points="527.97,-440.59 535.61,-433.25 525.06,-434.23 527.97,-440.59"/>
<text text-anchor="middle" x="468.61" y="-585.14" font-family="Times,serif" font-size="14.00">c6|m4</text>
</g>
<!-- spno&#45;&gt;spos -->
<g id="edge3" class="edge">
<title>spno&#45;&gt;spos</title>
<path fill="none" stroke="black" d="M617.12,-620.09C610.35,-648.31 596.73,-690.86 571.86,-719.81 529.28,-769.38 464.19,-805.45 413.14,-828.2"/>
<polygon fill="black" stroke="black" points="411.95,-824.9 404.19,-832.11 414.75,-831.31 411.95,-824.9"/>
<text text-anchor="middle" x="605.61" y="-706.51" font-family="Times,serif" font-size="14.00">c1|m1</text>
</g>
<!-- spno&#45;&gt;spno -->
<g id="edge18" class="edge">
<title>spno&#45;&gt;spno</title>
<path fill="none" stroke="black" d="M705.84,-612.48C737.93,-613.49 764.6,-605.93 764.6,-589.81 764.6,-575.64 744,-568.09 717.22,-567.15"/>
<polygon fill="black" stroke="black" points="717.36,-563.65 707.36,-567.14 717.35,-570.65 717.36,-563.65"/>
<text text-anchor="middle" x="775.1" y="-585.14" font-family="Times,serif" font-size="14.00">c3|</text>
</g>
<!-- mpno -->
<g id="node4" class="node">
<title>mpno</title>
<ellipse fill="none" stroke="black" cx="461.86" cy="-256.76" rx="115.26" ry="30.05"/>
<text text-anchor="middle" x="461.86" y="-260.71" font-family="Times,serif" font-size="14.00">Missing participants</text>
<text text-anchor="middle" x="461.86" y="-243.46" font-family="Times,serif" font-size="14.00">No organizer</text>
</g>
<!-- spno&#45;&gt;mpno -->
<g id="edge8" class="edge">
<title>spno&#45;&gt;mpno</title>
<path fill="none" stroke="black" d="M581.25,-561.28C525.11,-523.68 431.06,-458.99 422.36,-441.81 398.76,-395.25 419.98,-335.14 439.29,-296.52"/>
<polygon fill="black" stroke="black" points="442.18,-298.53 443.68,-288.04 435.97,-295.31 442.18,-298.53"/>
<text text-anchor="start" x="422.86" y="-403.51" font-family="Times,serif" font-size="14.00">c4|m2</text>
<text text-anchor="middle" x="444.61" y="-386.26" font-family="Times,serif" font-size="14.00">c9|m2</text>
</g>
<!-- fbno -->
<g id="node5" class="node">
<title>fbno</title>
<ellipse fill="none" stroke="black" cx="768.86" cy="-143.41" rx="77.07" ry="30.05"/>
<text text-anchor="middle" x="768.86" y="-147.36" font-family="Times,serif" font-size="14.00">Fully booked</text>
<text text-anchor="middle" x="768.86" y="-130.11" font-family="Times,serif" font-size="14.00">No organizer</text>
</g>
<!-- spno&#45;&gt;fbno -->
<g id="edge10" class="edge">
<title>spno&#45;&gt;fbno</title>
<path fill="none" stroke="black" d="M682.98,-563.18C730.34,-539.37 793.03,-498.95 821.86,-441.81 864.87,-356.56 819.89,-242.14 790.33,-183.16"/>
<polygon fill="black" stroke="black" points="793.56,-181.8 785.88,-174.5 787.33,-185 793.56,-181.8"/>
<text text-anchor="start" x="838.86" y="-326.01" font-family="Times,serif" font-size="14.00">c3|m7</text>
<text text-anchor="middle" x="865.11" y="-308.76" font-family="Times,serif" font-size="14.00">c12|m7</text>
</g>
<!-- spno&#45;&gt;c -->
<g id="edge17" class="edge">
<title>spno&#45;&gt;c</title>
<path fill="none" stroke="black" d="M637.51,-559.59C648.83,-533.76 661.94,-494.85 657.86,-459.81 657.6,-457.65 657.3,-455.45 656.96,-453.23"/>
<polygon fill="black" stroke="black" points="660.44,-452.81 655.22,-443.59 653.55,-454.06 660.44,-452.81"/>
<text text-anchor="middle" x="680.61" y="-463.76" font-family="Times,serif" font-size="14.00">c6|m4</text>
</g>
<!-- mpos&#45;&gt;spos -->
<g id="edge4" class="edge">
<title>mpos&#45;&gt;spos</title>
<path fill="none" stroke="black" d="M263.94,-173.08C250.24,-194.7 234.86,-225.67 234.86,-255.76 234.86,-590.81 234.86,-590.81 234.86,-590.81 234.86,-676.48 281.02,-768.18 310.93,-818.6"/>
<polygon fill="black" stroke="black" points="307.91,-820.37 316.08,-827.12 313.9,-816.75 307.91,-820.37"/>
<text text-anchor="start" x="234.86" y="-403.51" font-family="Times,serif" font-size="14.00">c3|m1</text>
<text text-anchor="middle" x="261.11" y="-386.26" font-family="Times,serif" font-size="14.00">c10|m1</text>
</g>
<!-- mpos&#45;&gt;mpno -->
<g id="edge5" class="edge">
<title>mpos&#45;&gt;mpno</title>
<path fill="none" stroke="black" d="M333.54,-171.1C344.91,-177.58 356.89,-184.62 367.86,-191.46 382.99,-200.9 399.14,-211.68 413.7,-221.67"/>
<polygon fill="black" stroke="black" points="411.55,-224.44 421.77,-227.25 415.53,-218.68 411.55,-224.44"/>
<text text-anchor="middle" x="405.36" y="-195.41" font-family="Times,serif" font-size="14.00">c2|</text>
</g>
<!-- mpos&#45;&gt;fbos -->
<g id="edge20" class="edge">
<title>mpos&#45;&gt;fbos</title>
<path fill="none" stroke="black" d="M352.72,-118.79C406.81,-99.97 482.22,-73.73 536.45,-54.86"/>
<polygon fill="black" stroke="black" points="537.28,-58.27 545.58,-51.68 534.98,-51.66 537.28,-58.27"/>
<text text-anchor="middle" x="500.11" y="-82.05" font-family="Times,serif" font-size="14.00">c3|m1,m7</text>
</g>
<!-- mpos&#45;&gt;c -->
<g id="edge19" class="edge">
<title>mpos&#45;&gt;c</title>
<path fill="none" stroke="black" d="M278,-173.68C272.48,-205.06 269.24,-254.71 294.36,-286.81 308.85,-305.33 422.89,-339.66 516.82,-365.41"/>
<polygon fill="black" stroke="black" points="515.85,-368.77 526.42,-368.02 517.69,-362.02 515.85,-368.77"/>
<text text-anchor="middle" x="316.61" y="-252.09" font-family="Times,serif" font-size="14.00">c6|m4</text>
</g>
<!-- mpno&#45;&gt;spno -->
<g id="edge7" class="edge">
<title>mpno&#45;&gt;spno</title>
<path fill="none" stroke="black" d="M410.12,-284.08C383.14,-300.94 352.82,-325.62 338.36,-357.31 322.77,-391.48 319.64,-409.25 338.36,-441.81 372.88,-501.88 421.09,-467.99 484.86,-495.06 519.44,-509.74 554.4,-533.62 580.48,-553.59"/>
<polygon fill="black" stroke="black" points="578.09,-556.17 588.13,-559.55 582.39,-550.64 578.09,-556.17"/>
<text text-anchor="start" x="338.86" y="-403.51" font-family="Times,serif" font-size="14.00">c3|m3</text>
<text text-anchor="middle" x="365.11" y="-386.26" font-family="Times,serif" font-size="14.00">c10|m3</text>
</g>
<!-- mpno&#45;&gt;mpos -->
<g id="edge6" class="edge">
<title>mpno&#45;&gt;mpos</title>
<path fill="none" stroke="black" d="M388.98,-233.09C373.06,-226.5 356.82,-218.4 342.86,-208.71 332.06,-201.22 321.88,-191.35 313.15,-181.59"/>
<polygon fill="black" stroke="black" points="316.02,-179.57 306.85,-174.26 310.71,-184.13 316.02,-179.57"/>
<text text-anchor="middle" x="353.36" y="-195.41" font-family="Times,serif" font-size="14.00">c1|</text>
</g>
<!-- mpno&#45;&gt;fbno -->
<g id="edge21" class="edge">
<title>mpno&#45;&gt;fbno</title>
<path fill="none" stroke="black" d="M465.9,-226.34C469.13,-213.81 474.93,-200.11 485.36,-191.46 514.56,-167.23 609.15,-155.18 681.12,-149.39"/>
<polygon fill="black" stroke="black" points="681.25,-152.89 690.95,-148.63 680.71,-145.92 681.25,-152.89"/>
<text text-anchor="middle" x="534.61" y="-195.41" font-family="Times,serif" font-size="14.00">c3|m1,m3,m7</text>
</g>
<!-- mpno&#45;&gt;c -->
<g id="edge22" class="edge">
<title>mpno&#45;&gt;c</title>
<path fill="none" stroke="black" d="M460.98,-287.26C462.01,-304.3 466.07,-325.11 478.36,-339.31 487.17,-349.5 497.87,-357.93 509.53,-364.92"/>
<polygon fill="black" stroke="black" points="507.77,-367.94 518.21,-369.72 511.16,-361.82 507.77,-367.94"/>
<text text-anchor="middle" x="500.61" y="-317.39" font-family="Times,serif" font-size="14.00">c6|m4</text>
</g>
<!-- fbno&#45;&gt;spno -->
<g id="edge12" class="edge">
<title>fbno&#45;&gt;spno</title>
<path fill="none" stroke="black" d="M804.21,-170.56C846.75,-205.51 910.63,-271 894.86,-339.31 879.12,-407.44 871.11,-430.6 818.86,-477.06 781.29,-510.46 732.13,-538.46 692.45,-558.07"/>
<polygon fill="black" stroke="black" points="691.14,-554.82 683.67,-562.34 694.2,-561.11 691.14,-554.82"/>
<text text-anchor="start" x="897.86" y="-326.01" font-family="Times,serif" font-size="14.00">c4|</text>
<text text-anchor="middle" x="912.86" y="-308.76" font-family="Times,serif" font-size="14.00">c11|</text>
</g>
<!-- fbno&#45;&gt;fbos -->
<g id="edge11" class="edge">
<title>fbno&#45;&gt;fbos</title>
<path fill="none" stroke="black" d="M752.79,-113.61C744.79,-101.35 734.19,-87.7 721.86,-78.1 708.94,-68.06 693.59,-59.87 678.33,-53.3"/>
<polygon fill="black" stroke="black" points="679.79,-50.12 669.21,-49.59 677.15,-56.6 679.79,-50.12"/>
<text text-anchor="middle" x="761.61" y="-82.05" font-family="Times,serif" font-size="14.00">c1|m1</text>
</g>
<!-- fbno&#45;&gt;c -->
<g id="edge16" class="edge">
<title>fbno&#45;&gt;c</title>
<path fill="none" stroke="black" d="M767.78,-173.92C765.67,-203.75 759.56,-250.51 741.86,-286.81 730.58,-309.94 713.21,-332.01 696.22,-350.33"/>
<polygon fill="black" stroke="black" points="693.87,-347.73 689.5,-357.38 698.94,-352.56 693.87,-347.73"/>
<text text-anchor="middle" x="782.61" y="-252.09" font-family="Times,serif" font-size="14.00">c6|m4</text>
</g>
<!-- fbos&#45;&gt;spos -->
<g id="edge14" class="edge">
<title>fbos&#45;&gt;spos</title>
<path fill="none" stroke="black" d="M524.37,-30.57C392.8,-31.84 141.57,-43.58 94.86,-113.35 46.6,-185.44 65.34,-218.48 56.86,-304.81 48.54,-389.46 62.83,-610.61 104.86,-684.56 141.76,-749.51 214.07,-797.46 268,-826.17"/>
<polygon fill="black" stroke="black" points="266.36,-829.26 276.84,-830.78 269.59,-823.05 266.36,-829.26"/>
<text text-anchor="start" x="56.86" y="-326.01" font-family="Times,serif" font-size="14.00">c4|</text>
<text text-anchor="middle" x="71.86" y="-308.76" font-family="Times,serif" font-size="14.00">c11|</text>
</g>
<!-- fbos&#45;&gt;fbno -->
<g id="edge13" class="edge">
<title>fbos&#45;&gt;fbno</title>
<path fill="none" stroke="black" d="M618.8,-59.95C625.92,-72.23 635.58,-85.87 647.36,-95.35 661.29,-106.58 678.21,-115.36 694.94,-122.13"/>
<polygon fill="black" stroke="black" points="693.3,-125.25 703.89,-125.55 695.8,-118.71 693.3,-125.25"/>
<text text-anchor="middle" x="683.11" y="-82.05" font-family="Times,serif" font-size="14.00">c2|m2,m3</text>
</g>
<!-- fbos&#45;&gt;c -->
<g id="edge15" class="edge">
<title>fbos&#45;&gt;c</title>
<path fill="none" stroke="black" d="M606.05,-60.3C608.21,-107.92 613.54,-205.09 623.86,-286.81 626.3,-306.16 629.84,-327.25 633.27,-345.84"/>
<polygon fill="black" stroke="black" points="629.81,-346.39 635.1,-355.57 636.69,-345.1 629.81,-346.39"/>
<text text-anchor="middle" x="637.61" y="-195.41" font-family="Times,serif" font-size="14.00">c6|m4</text>
</g>
<!-- c&#45;&gt;spno -->
<g id="edge26" class="edge">
<title>c&#45;&gt;spno</title>
<path fill="none" stroke="black" d="M595.19,-440.4C590.41,-446.39 586.26,-452.9 583.36,-459.81 570.98,-489.26 583,-523.95 596.94,-549.93"/>
<polygon fill="black" stroke="black" points="593.81,-551.51 601.79,-558.47 599.89,-548.05 593.81,-551.51"/>
<text text-anchor="middle" x="619.11" y="-463.76" font-family="Times,serif" font-size="14.00">c7|m3,m5</text>
</g>
<!-- c&#45;&gt;mpno -->
<g id="edge25" class="edge">
<title>c&#45;&gt;mpno</title>
<path fill="none" stroke="black" d="M574.55,-360.55C564.98,-354.03 555.61,-346.89 547.36,-339.31 533.31,-326.42 535.14,-318.49 521.86,-304.81 517.86,-300.71 513.51,-296.64 509.02,-292.73"/>
<polygon fill="black" stroke="black" points="511.37,-290.13 501.47,-286.38 506.87,-295.49 511.37,-290.13"/>
<text text-anchor="middle" x="569.61" y="-317.39" font-family="Times,serif" font-size="14.00">c7|m5</text>
</g>
<!-- d -->
<g id="node8" class="node">
<title>d</title>
<ellipse fill="none" stroke="black" cx="682.86" cy="-256.76" rx="50.16" ry="18"/>
<text text-anchor="middle" x="682.86" y="-252.09" font-family="Times,serif" font-size="14.00">Deleted</text>
</g>
<!-- c&#45;&gt;d -->
<g id="edge27" class="edge">
<title>c&#45;&gt;d</title>
<path fill="none" stroke="black" d="M655.35,-357.08C661.69,-334.16 669.41,-306.29 675.06,-285.91"/>
<polygon fill="black" stroke="black" points="678.41,-286.91 677.71,-276.33 671.67,-285.04 678.41,-286.91"/>
<text text-anchor="middle" x="680.36" y="-317.39" font-family="Times,serif" font-size="14.00">c8|</text>
</g>
<!-- i -->
<g id="node9" class="node">
<title>i</title>
<ellipse fill="none" stroke="black" cx="853.86" cy="-1109.81" rx="28.59" ry="18"/>
<text text-anchor="middle" x="853.86" y="-1105.14" font-family="Times,serif" font-size="14.00">Init</text>
</g>
<!-- i&#45;&gt;spos -->
<g id="edge28" class="edge">
<title>i&#45;&gt;spos</title>
<path fill="none" stroke="black" d="M831.6,-1098.1C757.54,-1062.44 517.5,-946.88 400.78,-890.69"/>
<polygon fill="black" stroke="black" points="402.45,-887.61 391.92,-886.43 399.41,-893.92 402.45,-887.61"/>
<text text-anchor="middle" x="678.61" y="-1001.01" font-family="Times,serif" font-size="14.00">c5|m6</text>
</g>
<!-- i&#45;&gt;spno -->
<g id="edge29" class="edge">
<title>i&#45;&gt;spno</title>
<path fill="none" stroke="black" d="M846.43,-1092.16C814.4,-1020.33 687.51,-735.8 640.5,-630.38"/>
<polygon fill="black" stroke="black" points="643.7,-628.96 636.43,-621.26 637.31,-631.82 643.7,-628.96"/>
<text text-anchor="middle" x="816.61" y="-853.76" font-family="Times,serif" font-size="14.00">c5|m6</text>
</g>
<!-- i&#45;&gt;mpos -->
<g id="edge30" class="edge">
<title>i&#45;&gt;mpos</title>
<path fill="none" stroke="black" d="M825.58,-1106.48C713.77,-1096.79 303.62,-1056.46 202.86,-979.06 7.79,-829.22 -19.99,-703.78 11.36,-459.81 20.43,-389.19 11.8,-363.68 51.86,-304.81 92.41,-245.21 163.06,-201.22 215.97,-174.54"/>
<polygon fill="black" stroke="black" points="217.19,-177.83 224.6,-170.26 214.09,-171.56 217.19,-177.83"/>
<text text-anchor="middle" x="33.61" y="-463.76" font-family="Times,serif" font-size="14.00">c5|m6</text>
</g>
<!-- i&#45;&gt;mpno -->
<g id="edge31" class="edge">
<title>i&#45;&gt;mpno</title>
<path fill="none" stroke="black" d="M855.55,-1091.59C865.11,-991.03 908.77,-480.18 821.86,-357.31 786.58,-307.45 753.28,-322.61 694.86,-304.81 670.72,-297.46 616.5,-286.4 566.44,-276.85"/>
<polygon fill="black" stroke="black" points="567.13,-273.42 556.65,-274.99 565.82,-280.3 567.13,-273.42"/>
<text text-anchor="middle" x="896.61" y="-585.14" font-family="Times,serif" font-size="14.00">c5|m6</text>
</g>
<!-- i&#45;&gt;fbno -->
<g id="edge32" class="edge">
<title>i&#45;&gt;fbno</title>
<path fill="none" stroke="black" d="M866.04,-1093.21C894.28,-1055.4 961.86,-954.98 961.86,-859.44 961.86,-859.44 961.86,-859.44 961.86,-255.76 961.86,-201.23 903.33,-172.99 850.74,-158.62"/>
<polygon fill="black" stroke="black" points="851.65,-155.24 841.09,-156.14 849.9,-162.02 851.65,-155.24"/>
<text text-anchor="middle" x="1010.61" y="-463.76" font-family="Times,serif" font-size="14.00">c5|m3,m6,m7</text>
</g>
<!-- i&#45;&gt;fbos -->
<g id="edge33" class="edge">
<title>i&#45;&gt;fbos</title>
<path fill="none" stroke="black" d="M870.83,-1094.98C922.58,-1052.15 1074.86,-920.9 1074.86,-859.44 1074.86,-859.44 1074.86,-859.44 1074.86,-142.41 1074.86,-65.38 832.82,-41.56 696.12,-34.25"/>
<polygon fill="black" stroke="black" points="696.53,-30.77 686.36,-33.75 696.17,-37.76 696.53,-30.77"/>
<text text-anchor="middle" x="1110.11" y="-394.89" font-family="Times,serif" font-size="14.00">c5|m6,m7</text>
</g>
<!-- condition -->
<g id="node10" class="node">
<title>condition</title>
<polygon fill="none" stroke="black" points="1102.98,-738.31 1102.98,-978.56 1362.73,-978.56 1362.73,-738.31 1102.98,-738.31"/>
<text text-anchor="middle" x="1232.86" y="-961.26" font-family="Times,serif" font-size="14.00">Condition</text>
<polyline fill="none" stroke="black" points="1102.98,-953.31 1362.73,-953.31"/>
<text text-anchor="start" x="1110.98" y="-936.01" font-family="Times,serif" font-size="14.00">c1 Organizer set</text>
<text text-anchor="start" x="1110.98" y="-918.76" font-family="Times,serif" font-size="14.00">c2 Organizer reset</text>
<text text-anchor="start" x="1110.98" y="-901.51" font-family="Times,serif" font-size="14.00">c3 Participant added</text>
<text text-anchor="start" x="1110.98" y="-884.26" font-family="Times,serif" font-size="14.00">c4 Participant removed</text>
<text text-anchor="start" x="1110.98" y="-867.01" font-family="Times,serif" font-size="14.00">c5 New event created</text>
<text text-anchor="start" x="1110.98" y="-849.76" font-family="Times,serif" font-size="14.00">c6 Event cancled</text>
<text text-anchor="start" x="1110.98" y="-832.51" font-family="Times,serif" font-size="14.00">c7 Event cancle undone</text>
<text text-anchor="start" x="1110.98" y="-815.26" font-family="Times,serif" font-size="14.00">c8 Event deleted</text>
<text text-anchor="start" x="1110.98" y="-798.01" font-family="Times,serif" font-size="14.00">c9 p_min increased to p_min&gt;p</text>
<text text-anchor="start" x="1110.98" y="-780.76" font-family="Times,serif" font-size="14.00">c10 p_min decreased to p_min≤p</text>
<text text-anchor="start" x="1110.98" y="-763.51" font-family="Times,serif" font-size="14.00">c11 p_max increased to p_max&gt; p</text>
<text text-anchor="start" x="1110.98" y="-746.26" font-family="Times,serif" font-size="14.00">c12 p_max decreased to p_max≤p</text>
</g>
<!-- participants -->
<g id="node12" class="node">
<title>participants</title>
<polygon fill="none" stroke="black" points="1145.36,-495.56 1145.36,-684.06 1320.36,-684.06 1320.36,-495.56 1145.36,-495.56"/>
<text text-anchor="start" x="1153.36" y="-666.76" font-family="Times,serif" font-size="14.00">Participants p</text>
<text text-anchor="middle" x="1232.86" y="-649.51" font-family="Times,serif" font-size="14.00">p≥0</text>
<text text-anchor="middle" x="1232.86" y="-632.26" font-family="Times,serif" font-size="14.00">0≤p_min≤p_max</text>
<polyline fill="none" stroke="black" points="1145.36,-624.31 1320.36,-624.31"/>
<text text-anchor="start" x="1153.36" y="-607.01" font-family="Times,serif" font-size="14.00">Missing participants</text>
<text text-anchor="middle" x="1232.86" y="-589.76" font-family="Times,serif" font-size="14.00">p&lt;p_min</text>
<text text-anchor="start" x="1153.36" y="-572.51" font-family="Times,serif" font-size="14.00">Sufficient participants</text>
<text text-anchor="middle" x="1232.86" y="-555.26" font-family="Times,serif" font-size="14.00">p≥p_min</text>
<text text-anchor="middle" x="1232.86" y="-538.01" font-family="Times,serif" font-size="14.00">p&lt;p_max</text>
<text text-anchor="start" x="1153.36" y="-520.76" font-family="Times,serif" font-size="14.00">Fully booked</text>
<text text-anchor="middle" x="1232.86" y="-503.51" font-family="Times,serif" font-size="14.00">p≥p_max</text>
</g>
<!-- condition&#45;&gt;participants -->
<!-- mail -->
<g id="node11" class="node">
<title>mail</title>
<polygon fill="none" stroke="black" points="952.98,-1032.81 952.98,-1186.81 1512.73,-1186.81 1512.73,-1032.81 952.98,-1032.81"/>
<text text-anchor="middle" x="1232.86" y="-1169.51" font-family="Times,serif" font-size="14.00">Mail messages</text>
<polyline fill="none" stroke="black" points="952.98,-1161.56 1512.73,-1161.56"/>
<text text-anchor="start" x="960.98" y="-1144.26" font-family="Times,serif" font-size="14.00">m1 &#39;Confirmed open&#39; to all participants and organizer of event</text>
<text text-anchor="start" x="960.98" y="-1127.01" font-family="Times,serif" font-size="14.00">m2 &#39;Pending if open&#39; to all participants and organizer of event&#39;</text>
<text text-anchor="start" x="960.98" y="-1109.76" font-family="Times,serif" font-size="14.00">m3 &#39;Event with sufficient participants is missing organizer&#39; to all organizers</text>
<text text-anchor="start" x="960.98" y="-1092.51" font-family="Times,serif" font-size="14.00">m4 &#39;Cancled&#39; to all participants and organizer of event</text>
<text text-anchor="start" x="960.98" y="-1075.26" font-family="Times,serif" font-size="14.00">m5 &#39;Not cancled&#39; to all participants and organizer of event</text>
<text text-anchor="start" x="960.98" y="-1058.01" font-family="Times,serif" font-size="14.00">m6 &#39;New event&#39; to all accounts</text>
<text text-anchor="start" x="960.98" y="-1040.76" font-family="Times,serif" font-size="14.00">m7 &#39;Fully booked&#39; to all organizers</text>
</g>
<!-- mail&#45;&gt;condition -->
</g>
</svg>
