<?xml version="1.0" encoding="UTF-8" standalone="no"?>
<!DOCTYPE svg PUBLIC "-//W3C//DTD SVG 1.1//EN"
 "http://www.w3.org/Graphics/SVG/1.1/DTD/svg11.dtd">
<!-- Generated by graphviz version 9.0.0 (20230911.1827)
 -->
<!-- Pages: 1 -->
<svg width="1513pt" height="1178pt"
 viewBox="0.00 0.00 1513.26 1178.06" xmlns="http://www.w3.org/2000/svg" xmlns:xlink="http://www.w3.org/1999/xlink">
<g id="graph0" class="graph" transform="scale(1 1) rotate(0) translate(4 1174.06)">
<polygon fill="white" stroke="none" points="-4,4 -4,-1174.06 1509.26,-1174.06 1509.26,4 -4,4"/>
<!-- spos -->
<g id="node1" class="node">
<title>spos</title>
<ellipse fill="none" stroke="black" cx="414.38" cy="-849.81" rx="123.74" ry="30.05"/>
<text text-anchor="middle" x="414.38" y="-853.76" font-family="Times,serif" font-size="14.00">Sufficient participants</text>
<text text-anchor="middle" x="414.38" y="-836.51" font-family="Times,serif" font-size="14.00">Organizer set</text>
</g>
<!-- spos&#45;&gt;spos -->
<g id="edge24" class="edge">
<title>spos&#45;&gt;spos</title>
<path fill="none" stroke="black" d="M485.49,-874.85C522.59,-878.8 556.12,-870.46 556.12,-849.81 556.12,-831.26 529.06,-822.64 496.65,-823.95"/>
<polygon fill="black" stroke="black" points="496.71,-820.43 487,-824.66 497.23,-827.41 496.71,-820.43"/>
<text text-anchor="middle" x="566.62" y="-845.14" font-family="Times,serif" font-size="14.00">c3|</text>
</g>
<!-- spno -->
<g id="node2" class="node">
<title>spno</title>
<ellipse fill="none" stroke="black" cx="632.38" cy="-589.81" rx="123.74" ry="30.05"/>
<text text-anchor="middle" x="632.38" y="-593.76" font-family="Times,serif" font-size="14.00">Sufficient participants</text>
<text text-anchor="middle" x="632.38" y="-576.51" font-family="Times,serif" font-size="14.00">No organizer</text>
</g>
<!-- spos&#45;&gt;spno -->
<g id="edge1" class="edge">
<title>spos&#45;&gt;spno</title>
<path fill="none" stroke="black" d="M434.8,-819.72C456.27,-789.63 491.52,-741.65 524.88,-702.56 547.1,-676.53 573.76,-648.8 594.97,-627.47"/>
<polygon fill="black" stroke="black" points="597.44,-629.95 602.04,-620.4 592.49,-625 597.44,-629.95"/>
<text text-anchor="middle" x="560.63" y="-706.51" font-family="Times,serif" font-size="14.00">c2|m2,m3</text>
</g>
<!-- mpos -->
<g id="node3" class="node">
<title>mpos</title>
<ellipse fill="none" stroke="black" cx="294.38" cy="-143.41" rx="115.26" ry="30.05"/>
<text text-anchor="middle" x="294.38" y="-147.36" font-family="Times,serif" font-size="14.00">Missing participants</text>
<text text-anchor="middle" x="294.38" y="-130.11" font-family="Times,serif" font-size="14.00">Organizer set</text>
</g>
<!-- spos&#45;&gt;mpos -->
<g id="edge2" class="edge">
<title>spos&#45;&gt;mpos</title>
<path fill="none" stroke="black" d="M356.11,-823.03C314.42,-801.49 260.55,-766.74 230.38,-719.81 162.44,-614.11 190.37,-566.94 178.88,-441.81 168.49,-328.69 164.47,-283.98 230.38,-191.46 233.52,-187.06 237.19,-182.9 241.17,-179.02"/>
<polygon fill="black" stroke="black" points="243.41,-181.71 248.55,-172.44 238.75,-176.48 243.41,-181.71"/>
<text text-anchor="start" x="179.38" y="-403.51" font-family="Times,serif" font-size="14.00">c4|m2</text>
<text text-anchor="middle" x="201.13" y="-386.26" font-family="Times,serif" font-size="14.00">c9|m2</text>
</g>
<!-- fbos -->
<g id="node6" class="node">
<title>fbos</title>
<ellipse fill="none" stroke="black" cx="614.38" cy="-30.05" rx="80.26" ry="30.05"/>
<text text-anchor="middle" x="614.38" y="-34" font-family="Times,serif" font-size="14.00">Fully booked</text>
<text text-anchor="middle" x="614.38" y="-16.75" font-family="Times,serif" font-size="14.00">Organizer set</text>
</g>
<!-- spos&#45;&gt;fbos -->
<g id="edge9" class="edge">
<title>spos&#45;&gt;fbos</title>
<path fill="none" stroke="black" d="M346.47,-824.43C259.08,-788.18 118.38,-711.13 118.38,-590.81 118.38,-590.81 118.38,-590.81 118.38,-142.41 118.38,-60.45 379.43,-38.8 522.76,-33.09"/>
<polygon fill="black" stroke="black" points="522.77,-36.59 532.63,-32.72 522.5,-29.6 522.77,-36.59"/>
<text text-anchor="start" x="118.38" y="-326.01" font-family="Times,serif" font-size="14.00">c3|m7</text>
<text text-anchor="middle" x="144.63" y="-308.76" font-family="Times,serif" font-size="14.00">c12|m7</text>
</g>
<!-- c -->
<g id="node7" class="node">
<title>c</title>
<ellipse fill="none" stroke="black" cx="653.38" cy="-399.56" rx="169.35" ry="42.25"/>
<text text-anchor="middle" x="653.38" y="-412.14" font-family="Times,serif" font-size="14.00">Cancled</text>
<text text-anchor="middle" x="653.38" y="-394.89" font-family="Times,serif" font-size="14.00">Action: Remove all participants</text>
<text text-anchor="middle" x="653.38" y="-377.64" font-family="Times,serif" font-size="14.00">and organizer from event</text>
</g>
<!-- spos&#45;&gt;c -->
<g id="edge23" class="edge">
<title>spos&#45;&gt;c</title>
<path fill="none" stroke="black" d="M409.07,-819.39C399.01,-754.19 384.14,-595.42 455.88,-495.06 474.37,-469.2 501.86,-450.15 530.49,-436.22"/>
<polygon fill="black" stroke="black" points="531.69,-439.52 539.29,-432.14 528.74,-433.17 531.69,-439.52"/>
<text text-anchor="middle" x="478.13" y="-585.14" font-family="Times,serif" font-size="14.00">c6|m4</text>
</g>
<!-- spno&#45;&gt;spos -->
<g id="edge3" class="edge">
<title>spno&#45;&gt;spos</title>
<path fill="none" stroke="black" d="M629.57,-620.1C625.69,-647.93 616.57,-689.85 595.38,-719.81 565.7,-761.78 517.9,-795 478.88,-817.22"/>
<polygon fill="black" stroke="black" points="477.52,-813.97 470.48,-821.89 480.92,-820.08 477.52,-813.97"/>
<text text-anchor="middle" x="627.13" y="-706.51" font-family="Times,serif" font-size="14.00">c1|m1</text>
</g>
<!-- spno&#45;&gt;spno -->
<g id="edge18" class="edge">
<title>spno&#45;&gt;spno</title>
<path fill="none" stroke="black" d="M715.37,-612.48C747.46,-613.49 774.12,-605.93 774.12,-589.81 774.12,-575.64 753.52,-568.09 726.75,-567.15"/>
<polygon fill="black" stroke="black" points="726.89,-563.65 716.88,-567.14 726.88,-570.65 726.89,-563.65"/>
<text text-anchor="middle" x="784.62" y="-585.14" font-family="Times,serif" font-size="14.00">c3|</text>
</g>
<!-- mpno -->
<g id="node4" class="node">
<title>mpno</title>
<ellipse fill="none" stroke="black" cx="471.38" cy="-256.76" rx="115.26" ry="30.05"/>
<text text-anchor="middle" x="471.38" y="-260.71" font-family="Times,serif" font-size="14.00">Missing participants</text>
<text text-anchor="middle" x="471.38" y="-243.46" font-family="Times,serif" font-size="14.00">No organizer</text>
</g>
<!-- spno&#45;&gt;mpno -->
<g id="edge8" class="edge">
<title>spno&#45;&gt;mpno</title>
<path fill="none" stroke="black" d="M590.77,-561.28C534.63,-523.68 440.59,-458.99 431.88,-441.81 408.28,-395.25 429.51,-335.14 448.81,-296.52"/>
<polygon fill="black" stroke="black" points="451.71,-298.53 453.21,-288.04 445.5,-295.31 451.71,-298.53"/>
<text text-anchor="start" x="432.38" y="-403.51" font-family="Times,serif" font-size="14.00">c4|m2</text>
<text text-anchor="middle" x="454.13" y="-386.26" font-family="Times,serif" font-size="14.00">c9|m2</text>
</g>
<!-- fbno -->
<g id="node5" class="node">
<title>fbno</title>
<ellipse fill="none" stroke="black" cx="778.38" cy="-143.41" rx="77.07" ry="30.05"/>
<text text-anchor="middle" x="778.38" y="-147.36" font-family="Times,serif" font-size="14.00">Fully booked</text>
<text text-anchor="middle" x="778.38" y="-130.11" font-family="Times,serif" font-size="14.00">No organizer</text>
</g>
<!-- spno&#45;&gt;fbno -->
<g id="edge10" class="edge">
<title>spno&#45;&gt;fbno</title>
<path fill="none" stroke="black" d="M692.51,-563.18C739.87,-539.37 802.55,-498.95 831.38,-441.81 874.4,-356.56 829.42,-242.14 799.85,-183.16"/>
<polygon fill="black" stroke="black" points="803.09,-181.8 795.41,-174.5 796.86,-185 803.09,-181.8"/>
<text text-anchor="start" x="848.38" y="-326.01" font-family="Times,serif" font-size="14.00">c3|m7</text>
<text text-anchor="middle" x="874.63" y="-308.76" font-family="Times,serif" font-size="14.00">c12|m7</text>
</g>
<!-- spno&#45;&gt;c -->
<g id="edge17" class="edge">
<title>spno&#45;&gt;c</title>
<path fill="none" stroke="black" d="M647.54,-559.6C659.24,-533.78 672.75,-494.88 668.38,-459.81 668.11,-457.64 667.79,-455.43 667.42,-453.21"/>
<polygon fill="black" stroke="black" points="670.89,-452.71 665.55,-443.56 664.01,-454.04 670.89,-452.71"/>
<text text-anchor="middle" x="691.13" y="-463.76" font-family="Times,serif" font-size="14.00">c6|m4</text>
</g>
<!-- mpos&#45;&gt;spos -->
<g id="edge4" class="edge">
<title>mpos&#45;&gt;spos</title>
<path fill="none" stroke="black" d="M273.47,-173.08C259.77,-194.7 244.38,-225.67 244.38,-255.76 244.38,-590.81 244.38,-590.81 244.38,-590.81 244.38,-682.85 320.74,-767.4 371.11,-813.17"/>
<polygon fill="black" stroke="black" points="368.65,-815.66 378.44,-819.71 373.31,-810.44 368.65,-815.66"/>
<text text-anchor="start" x="244.38" y="-403.51" font-family="Times,serif" font-size="14.00">c3|m1</text>
<text text-anchor="middle" x="270.63" y="-386.26" font-family="Times,serif" font-size="14.00">c10|m1</text>
</g>
<!-- mpos&#45;&gt;mpno -->
<g id="edge5" class="edge">
<title>mpos&#45;&gt;mpno</title>
<path fill="none" stroke="black" d="M359.63,-168.58C374.2,-175.12 389.21,-182.82 402.38,-191.46 414.48,-199.39 426.45,-209.51 436.94,-219.37"/>
<polygon fill="black" stroke="black" points="434.29,-221.68 443.91,-226.11 439.16,-216.64 434.29,-221.68"/>
<text text-anchor="middle" x="435.88" y="-195.41" font-family="Times,serif" font-size="14.00">c2|</text>
</g>
<!-- mpos&#45;&gt;fbos -->
<g id="edge20" class="edge">
<title>mpos&#45;&gt;fbos</title>
<path fill="none" stroke="black" d="M362.25,-118.79C416.34,-99.97 491.74,-73.73 545.98,-54.86"/>
<polygon fill="black" stroke="black" points="546.81,-58.27 555.1,-51.68 544.51,-51.66 546.81,-58.27"/>
<text text-anchor="middle" x="509.63" y="-82.05" font-family="Times,serif" font-size="14.00">c3|m1,m7</text>
</g>
<!-- mpos&#45;&gt;c -->
<g id="edge19" class="edge">
<title>mpos&#45;&gt;c</title>
<path fill="none" stroke="black" d="M287.53,-173.68C282,-205.06 278.76,-254.71 303.88,-286.81 318.37,-305.33 432.41,-339.66 526.35,-365.41"/>
<polygon fill="black" stroke="black" points="525.38,-368.77 535.95,-368.02 527.22,-362.02 525.38,-368.77"/>
<text text-anchor="middle" x="326.13" y="-252.09" font-family="Times,serif" font-size="14.00">c6|m4</text>
</g>
<!-- mpno&#45;&gt;spno -->
<g id="edge7" class="edge">
<title>mpno&#45;&gt;spno</title>
<path fill="none" stroke="black" d="M419.65,-284.08C392.67,-300.94 362.34,-325.62 347.88,-357.31 332.29,-391.48 329.17,-409.25 347.88,-441.81 382.4,-501.88 430.61,-467.99 494.38,-495.06 528.96,-509.74 563.93,-533.62 590.01,-553.59"/>
<polygon fill="black" stroke="black" points="587.61,-556.17 597.66,-559.55 591.92,-550.64 587.61,-556.17"/>
<text text-anchor="start" x="348.38" y="-403.51" font-family="Times,serif" font-size="14.00">c3|m3</text>
<text text-anchor="middle" x="374.63" y="-386.26" font-family="Times,serif" font-size="14.00">c10|m3</text>
</g>
<!-- mpno&#45;&gt;mpos -->
<g id="edge6" class="edge">
<title>mpno&#45;&gt;mpos</title>
<path fill="none" stroke="black" d="M415.72,-230.15C402.86,-223.62 389.43,-216.29 377.38,-208.71 363.6,-200.04 349.33,-189.59 336.59,-179.66"/>
<polygon fill="black" stroke="black" points="338.82,-176.96 328.8,-173.49 334.47,-182.44 338.82,-176.96"/>
<text text-anchor="middle" x="387.88" y="-195.41" font-family="Times,serif" font-size="14.00">c1|</text>
</g>
<!-- mpno&#45;&gt;fbno -->
<g id="edge21" class="edge">
<title>mpno&#45;&gt;fbno</title>
<path fill="none" stroke="black" d="M487.52,-226.74C496.1,-213.97 507.79,-199.97 521.88,-191.46 550.22,-174.35 629.86,-161.43 692.96,-153.5"/>
<polygon fill="black" stroke="black" points="693.13,-157.01 702.63,-152.31 692.28,-150.06 693.13,-157.01"/>
<text text-anchor="middle" x="557.63" y="-195.41" font-family="Times,serif" font-size="14.00">c3|m3,m7</text>
</g>
<!-- mpno&#45;&gt;c -->
<g id="edge22" class="edge">
<title>mpno&#45;&gt;c</title>
<path fill="none" stroke="black" d="M470.51,-287.26C471.53,-304.3 475.59,-325.11 487.88,-339.31 496.7,-349.5 507.39,-357.93 519.06,-364.92"/>
<polygon fill="black" stroke="black" points="517.29,-367.94 527.74,-369.72 520.68,-361.82 517.29,-367.94"/>
<text text-anchor="middle" x="510.13" y="-317.39" font-family="Times,serif" font-size="14.00">c6|m4</text>
</g>
<!-- fbno&#45;&gt;spno -->
<g id="edge12" class="edge">
<title>fbno&#45;&gt;spno</title>
<path fill="none" stroke="black" d="M813.74,-170.56C856.28,-205.51 920.15,-271 904.38,-339.31 888.65,-407.44 880.64,-430.6 828.38,-477.06 790.81,-510.46 741.66,-538.46 701.97,-558.07"/>
<polygon fill="black" stroke="black" points="700.66,-554.82 693.2,-562.34 703.72,-561.11 700.66,-554.82"/>
<text text-anchor="start" x="907.38" y="-326.01" font-family="Times,serif" font-size="14.00">c4|</text>
<text text-anchor="middle" x="922.38" y="-308.76" font-family="Times,serif" font-size="14.00">c11|</text>
</g>
<!-- fbno&#45;&gt;fbos -->
<g id="edge11" class="edge">
<title>fbno&#45;&gt;fbos</title>
<path fill="none" stroke="black" d="M766.1,-113.45C759.66,-101.16 750.73,-87.53 739.38,-78.1 725.49,-66.58 708.49,-57.71 691.56,-50.95"/>
<polygon fill="black" stroke="black" points="693.06,-47.77 682.47,-47.54 690.6,-54.33 693.06,-47.77"/>
<text text-anchor="middle" x="777.13" y="-82.05" font-family="Times,serif" font-size="14.00">c1|m1</text>
</g>
<!-- fbno&#45;&gt;c -->
<g id="edge16" class="edge">
<title>fbno&#45;&gt;c</title>
<path fill="none" stroke="black" d="M777.3,-173.92C775.2,-203.75 769.08,-250.51 751.38,-286.81 740.1,-309.94 722.74,-332.01 705.74,-350.33"/>
<polygon fill="black" stroke="black" points="703.39,-347.73 699.03,-357.38 708.46,-352.56 703.39,-347.73"/>
<text text-anchor="middle" x="792.13" y="-252.09" font-family="Times,serif" font-size="14.00">c6|m4</text>
</g>
<!-- fbos&#45;&gt;spos -->
<g id="edge14" class="edge">
<title>fbos&#45;&gt;spos</title>
<path fill="none" stroke="black" d="M533.9,-30.57C402.33,-31.84 151.09,-43.58 104.38,-113.35 56.12,-185.44 74.87,-218.48 66.38,-304.81 58.06,-389.46 70.11,-611.93 114.38,-684.56 159.07,-757.86 248.96,-800.76 318.75,-824.21"/>
<polygon fill="black" stroke="black" points="317.3,-827.42 327.9,-827.2 319.48,-820.77 317.3,-827.42"/>
<text text-anchor="start" x="66.38" y="-326.01" font-family="Times,serif" font-size="14.00">c4|</text>
<text text-anchor="middle" x="81.38" y="-308.76" font-family="Times,serif" font-size="14.00">c11|</text>
</g>
<!-- fbos&#45;&gt;fbno -->
<g id="edge13" class="edge">
<title>fbos&#45;&gt;fbno</title>
<path fill="none" stroke="black" d="M632.09,-59.75C640.77,-71.99 652.1,-85.66 664.88,-95.35 677.79,-105.15 693.03,-113.27 708.09,-119.86"/>
<polygon fill="black" stroke="black" points="706.48,-122.98 717.05,-123.59 709.17,-116.51 706.48,-122.98"/>
<text text-anchor="middle" x="700.63" y="-82.05" font-family="Times,serif" font-size="14.00">c2|m2,m3</text>
</g>
<!-- fbos&#45;&gt;c -->
<g id="edge15" class="edge">
<title>fbos&#45;&gt;c</title>
<path fill="none" stroke="black" d="M615.57,-60.3C617.73,-107.92 623.06,-205.09 633.38,-286.81 635.83,-306.16 639.37,-327.25 642.8,-345.84"/>
<polygon fill="black" stroke="black" points="639.34,-346.39 644.62,-355.57 646.22,-345.1 639.34,-346.39"/>
<text text-anchor="middle" x="647.13" y="-195.41" font-family="Times,serif" font-size="14.00">c6|m4</text>
</g>
<!-- c&#45;&gt;spno -->
<g id="edge26" class="edge">
<title>c&#45;&gt;spno</title>
<path fill="none" stroke="black" d="M605.51,-440.49C600.81,-446.46 596.73,-452.95 593.88,-459.81 581.65,-489.25 593.38,-523.94 607.01,-549.93"/>
<polygon fill="black" stroke="black" points="603.84,-551.42 611.76,-558.46 609.96,-548.02 603.84,-551.42"/>
<text text-anchor="middle" x="629.63" y="-463.76" font-family="Times,serif" font-size="14.00">c7|m2,m3</text>
</g>
<!-- c&#45;&gt;mpno -->
<g id="edge25" class="edge">
<title>c&#45;&gt;mpno</title>
<path fill="none" stroke="black" d="M584.07,-360.55C574.5,-354.03 565.14,-346.89 556.88,-339.31 542.83,-326.42 544.67,-318.49 531.38,-304.81 527.39,-300.71 523.03,-296.64 518.55,-292.73"/>
<polygon fill="black" stroke="black" points="520.9,-290.13 510.99,-286.38 516.4,-295.49 520.9,-290.13"/>
<text text-anchor="middle" x="579.13" y="-317.39" font-family="Times,serif" font-size="14.00">c7|m2</text>
</g>
<!-- d -->
<g id="node8" class="node">
<title>d</title>
<ellipse fill="none" stroke="black" cx="692.38" cy="-256.76" rx="50.16" ry="18"/>
<text text-anchor="middle" x="692.38" y="-252.09" font-family="Times,serif" font-size="14.00">Deleted</text>
</g>
<!-- c&#45;&gt;d -->
<g id="edge27" class="edge">
<title>c&#45;&gt;d</title>
<path fill="none" stroke="black" d="M664.87,-357.08C671.22,-334.16 678.94,-306.29 684.58,-285.91"/>
<polygon fill="black" stroke="black" points="687.94,-286.91 687.24,-276.33 681.19,-285.04 687.94,-286.91"/>
<text text-anchor="middle" x="689.88" y="-317.39" font-family="Times,serif" font-size="14.00">c8|</text>
</g>
<!-- i -->
<g id="node9" class="node">
<title>i</title>
<ellipse fill="none" stroke="black" cx="766.38" cy="-1092.56" rx="28.59" ry="18"/>
<text text-anchor="middle" x="766.38" y="-1087.89" font-family="Times,serif" font-size="14.00">Init</text>
</g>
<!-- i&#45;&gt;spos -->
<g id="edge28" class="edge">
<title>i&#45;&gt;spos</title>
<path fill="none" stroke="black" d="M747.46,-1078.62C694.49,-1042.39 543.46,-939.09 464.25,-884.92"/>
<polygon fill="black" stroke="black" points="466.43,-882.17 456.2,-879.42 462.48,-887.95 466.43,-882.17"/>
<text text-anchor="middle" x="644.13" y="-983.76" font-family="Times,serif" font-size="14.00">c5|m6</text>
</g>
<!-- i&#45;&gt;spno -->
<g id="edge29" class="edge">
<title>i&#45;&gt;spno</title>
<path fill="none" stroke="black" d="M761.77,-1074.32C742.83,-1003.54 670.73,-734.12 643.18,-631.15"/>
<polygon fill="black" stroke="black" points="646.63,-630.51 640.66,-621.76 639.87,-632.32 646.63,-630.51"/>
<text text-anchor="middle" x="754.13" y="-845.14" font-family="Times,serif" font-size="14.00">c5|m6</text>
</g>
<!-- i&#45;&gt;mpos -->
<g id="edge30" class="edge">
<title>i&#45;&gt;mpos</title>
<path fill="none" stroke="black" d="M737.54,-1090.18C658.15,-1085.15 432.29,-1062.29 281.38,-961.81 151.82,-875.54 133.85,-825.32 67.38,-684.56 -4.7,-531.92 -34.79,-444.23 60.38,-304.81 101.14,-245.1 172.1,-201.13 225.21,-174.48"/>
<polygon fill="black" stroke="black" points="226.46,-177.76 233.89,-170.21 223.37,-171.48 226.46,-177.76"/>
<text text-anchor="middle" x="23.13" y="-463.76" font-family="Times,serif" font-size="14.00">c5|m6</text>
</g>
<!-- i&#45;&gt;mpno -->
<g id="edge31" class="edge">
<title>i&#45;&gt;mpno</title>
<path fill="none" stroke="black" d="M774.77,-1075.01C816.47,-990.2 993.04,-599.06 831.38,-357.31 797.43,-306.54 762.81,-322.61 704.38,-304.81 680.25,-297.46 626.03,-286.4 575.96,-276.85"/>
<polygon fill="black" stroke="black" points="576.65,-273.42 566.17,-274.99 575.35,-280.3 576.65,-273.42"/>
<text text-anchor="middle" x="920.13" y="-585.14" font-family="Times,serif" font-size="14.00">c5|m6</text>
</g>
<!-- i&#45;&gt;fbno -->
<g id="edge32" class="edge">
<title>i&#45;&gt;fbno</title>
<path fill="none" stroke="black" d="M787.55,-1080.1C839.92,-1050.03 971.38,-963.35 971.38,-850.81 971.38,-850.81 971.38,-850.81 971.38,-255.76 971.38,-201.23 912.86,-172.99 860.26,-158.62"/>
<polygon fill="black" stroke="black" points="861.17,-155.24 850.62,-156.14 859.43,-162.02 861.17,-155.24"/>
<text text-anchor="middle" x="1020.13" y="-463.76" font-family="Times,serif" font-size="14.00">c5|m3,m6,m7</text>
</g>
<!-- i&#45;&gt;fbos -->
<g id="edge33" class="edge">
<title>i&#45;&gt;fbos</title>
<path fill="none" stroke="black" d="M788.49,-1080.61C860.61,-1044.19 1084.38,-925.16 1084.38,-850.81 1084.38,-850.81 1084.38,-850.81 1084.38,-142.41 1084.38,-65.38 842.34,-41.56 705.65,-34.25"/>
<polygon fill="black" stroke="black" points="706.05,-30.77 695.89,-33.75 705.7,-37.76 706.05,-30.77"/>
<text text-anchor="middle" x="1119.63" y="-394.89" font-family="Times,serif" font-size="14.00">c5|m6,m7</text>
</g>
<!-- condition -->
<g id="node10" class="node">
<title>condition</title>
<polygon fill="none" stroke="black" points="1112.76,-738.31 1112.76,-961.31 1338.01,-961.31 1338.01,-738.31 1112.76,-738.31"/>
<text text-anchor="middle" x="1225.38" y="-944.01" font-family="Times,serif" font-size="14.00">Condition</text>
<polyline fill="none" stroke="black" points="1112.76,-936.06 1338.01,-936.06"/>
<text text-anchor="start" x="1120.76" y="-918.76" font-family="Times,serif" font-size="14.00">c1 Organizer set</text>
<text text-anchor="start" x="1120.76" y="-901.51" font-family="Times,serif" font-size="14.00">c2 Organizer reset</text>
<text text-anchor="start" x="1120.76" y="-884.26" font-family="Times,serif" font-size="14.00">c3 Participant added</text>
<text text-anchor="start" x="1120.76" y="-867.01" font-family="Times,serif" font-size="14.00">c4 Participant removed</text>
<text text-anchor="start" x="1120.76" y="-849.76" font-family="Times,serif" font-size="14.00">c5 New event created</text>
<text text-anchor="start" x="1120.76" y="-832.51" font-family="Times,serif" font-size="14.00">c6 Event cancled</text>
<text text-anchor="start" x="1120.76" y="-815.26" font-family="Times,serif" font-size="14.00">c8 Event deleted</text>
<text text-anchor="start" x="1120.76" y="-798.01" font-family="Times,serif" font-size="14.00">c9 pₘᵢₙ increased to pₘᵢₙ&gt;p</text>
<text text-anchor="start" x="1120.76" y="-780.76" font-family="Times,serif" font-size="14.00">c10 pₘᵢₙ decreased to pₘᵢₙ≤p</text>
<text text-anchor="start" x="1120.76" y="-763.51" font-family="Times,serif" font-size="14.00">c11 pₘₐₓ increased to pₘₐₓ&gt; p</text>
<text text-anchor="start" x="1120.76" y="-746.26" font-family="Times,serif" font-size="14.00">c12 pₘₐₓ decreased to pₘₐₓ≤p</text>
</g>
<!-- participants -->
<g id="node12" class="node">
<title>participants</title>
<polygon fill="none" stroke="black" points="1137.88,-495.56 1137.88,-684.06 1312.88,-684.06 1312.88,-495.56 1137.88,-495.56"/>
<text text-anchor="start" x="1145.88" y="-666.76" font-family="Times,serif" font-size="14.00">Participants p</text>
<text text-anchor="middle" x="1225.38" y="-649.51" font-family="Times,serif" font-size="14.00">p≥0</text>
<text text-anchor="middle" x="1225.38" y="-632.26" font-family="Times,serif" font-size="14.00">0≤pₘᵢₙ≤pₘₐₓ</text>
<polyline fill="none" stroke="black" points="1137.88,-624.31 1312.88,-624.31"/>
<text text-anchor="start" x="1145.88" y="-607.01" font-family="Times,serif" font-size="14.00">Missing participants</text>
<text text-anchor="middle" x="1225.38" y="-589.76" font-family="Times,serif" font-size="14.00">p&lt;pₘᵢₙ</text>
<text text-anchor="start" x="1145.88" y="-572.51" font-family="Times,serif" font-size="14.00">Sufficient participants</text>
<text text-anchor="middle" x="1225.38" y="-555.26" font-family="Times,serif" font-size="14.00">p≥pₘᵢₙ</text>
<text text-anchor="middle" x="1225.38" y="-538.01" font-family="Times,serif" font-size="14.00">p&lt;pₘₐₓ</text>
<text text-anchor="start" x="1145.88" y="-520.76" font-family="Times,serif" font-size="14.00">Fully booked</text>
<text text-anchor="middle" x="1225.38" y="-503.51" font-family="Times,serif" font-size="14.00">p≥pₘₐₓ</text>
</g>
<!-- condition&#45;&gt;participants -->
<!-- mail -->
<g id="node11" class="node">
<title>mail</title>
<polygon fill="none" stroke="black" points="945.51,-1015.56 945.51,-1169.56 1505.26,-1169.56 1505.26,-1015.56 945.51,-1015.56"/>
<text text-anchor="middle" x="1225.38" y="-1152.26" font-family="Times,serif" font-size="14.00">Mail messages</text>
<polyline fill="none" stroke="black" points="945.51,-1144.31 1505.26,-1144.31"/>
<text text-anchor="start" x="953.51" y="-1127.01" font-family="Times,serif" font-size="14.00">m1 &#39;Confirmed open&#39; to all participants and organizer of event</text>
<text text-anchor="start" x="953.51" y="-1109.76" font-family="Times,serif" font-size="14.00">m2 &#39;Pending if open&#39; to all participants and organizer of event&#39;</text>
<text text-anchor="start" x="953.51" y="-1092.51" font-family="Times,serif" font-size="14.00">m3 &#39;Event with sufficient participants is missing organizer&#39; to all organizers</text>
<text text-anchor="start" x="953.51" y="-1075.26" font-family="Times,serif" font-size="14.00">m4 &#39;Cancled&#39; to all participants and organizer of event</text>
<text text-anchor="start" x="953.51" y="-1058.01" font-family="Times,serif" font-size="14.00">m5 &#39;Not cancled&#39; to all participants and organizer of event</text>
<text text-anchor="start" x="953.51" y="-1040.76" font-family="Times,serif" font-size="14.00">m6 &#39;New event&#39; to all accounts</text>
<text text-anchor="start" x="953.51" y="-1023.51" font-family="Times,serif" font-size="14.00">m7 &#39;Fully booked&#39; to all organizers</text>
</g>
<!-- mail&#45;&gt;condition -->
</g>
</svg>
