<?xml version="1.0" encoding="UTF-8" standalone="no"?>
<!DOCTYPE svg PUBLIC "-//W3C//DTD SVG 1.1//EN"
 "http://www.w3.org/Graphics/SVG/1.1/DTD/svg11.dtd">
<!-- Generated by graphviz version 9.0.0 (20230911.1827)
 -->
<!-- Pages: 1 -->
<svg width="1578pt" height="1178pt"
 viewBox="0.00 0.00 1577.88 1178.06" xmlns="http://www.w3.org/2000/svg" xmlns:xlink="http://www.w3.org/1999/xlink">
<g id="graph0" class="graph" transform="scale(1 1) rotate(0) translate(4 1174.06)">
<polygon fill="white" stroke="none" points="-4,4 -4,-1174.06 1573.88,-1174.06 1573.88,4 -4,4"/>
<!-- spos -->
<g id="node1" class="node">
<title>spos</title>
<ellipse fill="none" stroke="black" cx="663" cy="-858.44" rx="123.74" ry="30.05"/>
<text text-anchor="middle" x="663" y="-862.39" font-family="Times,serif" font-size="14.00">Sufficient participants</text>
<text text-anchor="middle" x="663" y="-845.14" font-family="Times,serif" font-size="14.00">Organizer set</text>
</g>
<!-- spos&#45;&gt;spos -->
<g id="edge24" class="edge">
<title>spos&#45;&gt;spos</title>
<path fill="none" stroke="black" d="M728.61,-884.32C767.83,-890.07 804.74,-881.44 804.74,-858.44 804.74,-837.68 774.69,-828.62 740,-831.28"/>
<polygon fill="black" stroke="black" points="739.67,-827.79 730.12,-832.38 740.44,-834.75 739.67,-827.79"/>
<text text-anchor="middle" x="815.24" y="-853.76" font-family="Times,serif" font-size="14.00">c3|</text>
</g>
<!-- spno -->
<g id="node2" class="node">
<title>spno</title>
<ellipse fill="none" stroke="black" cx="664" cy="-589.81" rx="123.74" ry="30.05"/>
<text text-anchor="middle" x="664" y="-593.76" font-family="Times,serif" font-size="14.00">Sufficient participants</text>
<text text-anchor="middle" x="664" y="-576.51" font-family="Times,serif" font-size="14.00">No organizer</text>
</g>
<!-- spos&#45;&gt;spno -->
<g id="edge1" class="edge">
<title>spos&#45;&gt;spno</title>
<path fill="none" stroke="black" d="M645.66,-828.42C629.32,-797.59 608.58,-747.22 617.5,-702.56 622.54,-677.35 633.38,-650.72 643.33,-629.78"/>
<polygon fill="black" stroke="black" points="646.35,-631.57 647.59,-621.05 640.06,-628.49 646.35,-631.57"/>
<text text-anchor="middle" x="653.25" y="-706.51" font-family="Times,serif" font-size="14.00">c2|m2,m3</text>
</g>
<!-- mpos -->
<g id="node3" class="node">
<title>mpos</title>
<ellipse fill="none" stroke="black" cx="789" cy="-143.41" rx="115.26" ry="30.05"/>
<text text-anchor="middle" x="789" y="-147.36" font-family="Times,serif" font-size="14.00">Missing participants</text>
<text text-anchor="middle" x="789" y="-130.11" font-family="Times,serif" font-size="14.00">Organizer set</text>
</g>
<!-- spos&#45;&gt;mpos -->
<g id="edge2" class="edge">
<title>spos&#45;&gt;mpos</title>
<path fill="none" stroke="black" d="M621.79,-829.89C516.98,-756.22 255.01,-547.37 348.5,-357.31 371.16,-311.25 400.06,-319.07 440,-286.81 472.16,-260.83 474.62,-246.35 511,-226.71 565.28,-197.4 631.3,-177.29 685.38,-164.29"/>
<polygon fill="black" stroke="black" points="685.98,-167.74 694.91,-162.05 684.38,-160.93 685.98,-167.74"/>
<text text-anchor="start" x="349" y="-403.51" font-family="Times,serif" font-size="14.00">c4|m2</text>
<text text-anchor="middle" x="370.75" y="-386.26" font-family="Times,serif" font-size="14.00">c9|m2</text>
</g>
<!-- fbos -->
<g id="node6" class="node">
<title>fbos</title>
<ellipse fill="none" stroke="black" cx="315" cy="-30.05" rx="80.26" ry="30.05"/>
<text text-anchor="middle" x="315" y="-34" font-family="Times,serif" font-size="14.00">Fully booked</text>
<text text-anchor="middle" x="315" y="-16.75" font-family="Times,serif" font-size="14.00">Organizer set</text>
</g>
<!-- spos&#45;&gt;fbos -->
<g id="edge9" class="edge">
<title>spos&#45;&gt;fbos</title>
<path fill="none" stroke="black" d="M592.24,-833.4C520.17,-806.18 408.45,-756.11 332,-684.56 200.79,-561.76 170.09,-512.34 121.5,-339.31 101.32,-267.46 104.73,-189.81 162,-113.35 182.3,-86.25 214.22,-67.09 243.66,-54.12"/>
<polygon fill="black" stroke="black" points="244.7,-57.48 252.55,-50.38 241.98,-51.03 244.7,-57.48"/>
<text text-anchor="start" x="122" y="-326.01" font-family="Times,serif" font-size="14.00">c3|m6</text>
<text text-anchor="middle" x="148.25" y="-308.76" font-family="Times,serif" font-size="14.00">c12|m6</text>
</g>
<!-- c -->
<g id="node7" class="node">
<title>c</title>
<ellipse fill="none" stroke="black" cx="570" cy="-399.56" rx="169.35" ry="42.25"/>
<text text-anchor="middle" x="570" y="-412.14" font-family="Times,serif" font-size="14.00">Cancled</text>
<text text-anchor="middle" x="570" y="-394.89" font-family="Times,serif" font-size="14.00">Action: Remove all participants</text>
<text text-anchor="middle" x="570" y="-377.64" font-family="Times,serif" font-size="14.00">and organizer from event</text>
</g>
<!-- spos&#45;&gt;c -->
<g id="edge23" class="edge">
<title>spos&#45;&gt;c</title>
<path fill="none" stroke="black" d="M705.98,-829.78C748.15,-799.81 809.83,-747.71 836,-684.56 868.24,-606.76 884.57,-563.87 836,-495.06 819.2,-471.27 760.67,-449.2 702.77,-432.38"/>
<polygon fill="black" stroke="black" points="704.01,-429.1 693.43,-429.72 702.09,-435.83 704.01,-429.1"/>
<text text-anchor="middle" x="888.75" y="-585.14" font-family="Times,serif" font-size="14.00">c6|m4</text>
</g>
<!-- spno&#45;&gt;spos -->
<g id="edge3" class="edge">
<title>spno&#45;&gt;spos</title>
<path fill="none" stroke="black" d="M672.03,-619.95C677.77,-642.34 684.98,-674.15 688,-702.56 692.16,-741.76 683.63,-786.14 675.42,-817.31"/>
<polygon fill="black" stroke="black" points="672.12,-816.13 672.84,-826.7 678.87,-817.99 672.12,-816.13"/>
<text text-anchor="middle" x="711.75" y="-706.51" font-family="Times,serif" font-size="14.00">c1|m1</text>
</g>
<!-- spno&#45;&gt;spno -->
<g id="edge18" class="edge">
<title>spno&#45;&gt;spno</title>
<path fill="none" stroke="black" d="M746.99,-612.48C779.07,-613.49 805.74,-605.93 805.74,-589.81 805.74,-575.64 785.14,-568.09 758.37,-567.15"/>
<polygon fill="black" stroke="black" points="758.5,-563.65 748.5,-567.14 758.5,-570.65 758.5,-563.65"/>
<text text-anchor="middle" x="816.24" y="-585.14" font-family="Times,serif" font-size="14.00">c3|</text>
</g>
<!-- mpno -->
<g id="node4" class="node">
<title>mpno</title>
<ellipse fill="none" stroke="black" cx="833" cy="-256.76" rx="115.26" ry="30.05"/>
<text text-anchor="middle" x="833" y="-260.71" font-family="Times,serif" font-size="14.00">Missing participants</text>
<text text-anchor="middle" x="833" y="-243.46" font-family="Times,serif" font-size="14.00">No organizer</text>
</g>
<!-- spno&#45;&gt;mpno -->
<g id="edge8" class="edge">
<title>spno&#45;&gt;mpno</title>
<path fill="none" stroke="black" d="M716.68,-562.29C759.29,-537.59 816.29,-496.38 842,-441.81 863.53,-396.11 855.07,-336.76 845.43,-297.99"/>
<polygon fill="black" stroke="black" points="848.89,-297.38 842.96,-288.6 842.12,-299.17 848.89,-297.38"/>
<text text-anchor="start" x="856" y="-403.51" font-family="Times,serif" font-size="14.00">c4|m2</text>
<text text-anchor="middle" x="877.75" y="-386.26" font-family="Times,serif" font-size="14.00">c9|m2</text>
</g>
<!-- fbno -->
<g id="node5" class="node">
<title>fbno</title>
<ellipse fill="none" stroke="black" cx="248" cy="-143.41" rx="77.07" ry="30.05"/>
<text text-anchor="middle" x="248" y="-147.36" font-family="Times,serif" font-size="14.00">Fully booked</text>
<text text-anchor="middle" x="248" y="-130.11" font-family="Times,serif" font-size="14.00">No organizer</text>
</g>
<!-- spno&#45;&gt;fbno -->
<g id="edge10" class="edge">
<title>spno&#45;&gt;fbno</title>
<path fill="none" stroke="black" d="M594.44,-564.64C534.68,-541 449.34,-500.04 392,-441.81 362.29,-411.64 382.29,-382.15 348,-357.31 308.06,-328.38 273.97,-373.58 238.5,-339.31 197.73,-299.93 214.31,-228.76 230.69,-184.19"/>
<polygon fill="black" stroke="black" points="233.95,-185.47 234.28,-174.88 227.42,-182.95 233.95,-185.47"/>
<text text-anchor="start" x="239" y="-326.01" font-family="Times,serif" font-size="14.00">c3|m6</text>
<text text-anchor="middle" x="265.25" y="-308.76" font-family="Times,serif" font-size="14.00">c12|m6</text>
</g>
<!-- spno&#45;&gt;c -->
<g id="edge17" class="edge">
<title>spno&#45;&gt;c</title>
<path fill="none" stroke="black" d="M664.7,-559.44C664.09,-531.93 659.84,-490.57 642,-459.81 639.62,-455.72 636.85,-451.78 633.8,-448.03"/>
<polygon fill="black" stroke="black" points="636.54,-445.84 627.26,-440.73 631.33,-450.51 636.54,-445.84"/>
<text text-anchor="middle" x="671.75" y="-463.76" font-family="Times,serif" font-size="14.00">c6|m4</text>
</g>
<!-- mpos&#45;&gt;spos -->
<g id="edge4" class="edge">
<title>mpos&#45;&gt;spos</title>
<path fill="none" stroke="black" d="M872.15,-164.6C904.42,-176.94 938.09,-196.39 957,-226.71 1011.08,-313.42 967.77,-597.66 914,-684.56 890.94,-721.83 867.31,-713.26 831,-737.81 789.66,-765.77 743.53,-798.75 710.08,-822.99"/>
<polygon fill="black" stroke="black" points="708.26,-819.99 702.22,-828.7 712.37,-825.65 708.26,-819.99"/>
<text text-anchor="start" x="982" y="-403.51" font-family="Times,serif" font-size="14.00">c3|m1</text>
<text text-anchor="middle" x="1008.25" y="-386.26" font-family="Times,serif" font-size="14.00">c10|m1</text>
</g>
<!-- mpos&#45;&gt;mpno -->
<g id="edge5" class="edge">
<title>mpos&#45;&gt;mpno</title>
<path fill="none" stroke="black" d="M785.12,-173.76C784.73,-185.04 785.67,-197.81 790,-208.71 791.29,-211.95 792.91,-215.1 794.76,-218.14"/>
<polygon fill="black" stroke="black" points="791.83,-220.06 800.47,-226.2 797.54,-216.01 791.83,-220.06"/>
<text text-anchor="middle" x="800.5" y="-195.41" font-family="Times,serif" font-size="14.00">c2|</text>
</g>
<!-- mpos&#45;&gt;fbos -->
<g id="edge20" class="edge">
<title>mpos&#45;&gt;fbos</title>
<path fill="none" stroke="black" d="M704.53,-122.56C616.31,-101.84 479.05,-69.59 393.23,-49.43"/>
<polygon fill="black" stroke="black" points="394.26,-46.08 383.72,-47.2 392.66,-52.89 394.26,-46.08"/>
<text text-anchor="middle" x="616.25" y="-82.05" font-family="Times,serif" font-size="14.00">c3|m1,m6</text>
</g>
<!-- mpos&#45;&gt;c -->
<g id="edge19" class="edge">
<title>mpos&#45;&gt;c</title>
<path fill="none" stroke="black" d="M709.8,-165.53C695.31,-172.08 681.24,-180.55 670,-191.46 636.9,-223.59 648.9,-245.19 629,-286.81 619.46,-306.77 608.28,-328.34 598.24,-347.16"/>
<polygon fill="black" stroke="black" points="595.15,-345.5 593.51,-355.97 601.32,-348.82 595.15,-345.5"/>
<text text-anchor="middle" x="668.75" y="-252.09" font-family="Times,serif" font-size="14.00">c6|m4</text>
</g>
<!-- mpno&#45;&gt;spno -->
<g id="edge7" class="edge">
<title>mpno&#45;&gt;spno</title>
<path fill="none" stroke="black" d="M820.51,-286.82C804.57,-323.41 775.73,-388 748,-441.81 728.79,-479.09 704.9,-520.48 687.51,-549.81"/>
<polygon fill="black" stroke="black" points="684.53,-547.98 682.43,-558.36 690.55,-551.56 684.53,-547.98"/>
<text text-anchor="start" x="789" y="-403.51" font-family="Times,serif" font-size="14.00">c3|m3</text>
<text text-anchor="middle" x="815.25" y="-386.26" font-family="Times,serif" font-size="14.00">c10|m3</text>
</g>
<!-- mpno&#45;&gt;mpos -->
<g id="edge6" class="edge">
<title>mpno&#45;&gt;mpos</title>
<path fill="none" stroke="black" d="M823.69,-226.39C820,-215.34 815.55,-202.73 811,-191.46 810,-188.99 808.94,-186.46 807.85,-183.93"/>
<polygon fill="black" stroke="black" points="811.11,-182.65 803.84,-174.94 804.72,-185.5 811.11,-182.65"/>
<text text-anchor="middle" x="827.5" y="-195.41" font-family="Times,serif" font-size="14.00">c1|</text>
</g>
<!-- mpno&#45;&gt;fbno -->
<g id="edge21" class="edge">
<title>mpno&#45;&gt;fbno</title>
<path fill="none" stroke="black" d="M747.79,-236.2C732.89,-232.92 717.51,-229.64 703,-226.71 572.7,-200.38 420.59,-173.67 329.41,-158.1"/>
<polygon fill="black" stroke="black" points="330.26,-154.69 319.81,-156.46 329.08,-161.59 330.26,-154.69"/>
<text text-anchor="middle" x="639.25" y="-195.41" font-family="Times,serif" font-size="14.00">c3|m3,m6</text>
</g>
<!-- mpno&#45;&gt;c -->
<g id="edge22" class="edge">
<title>mpno&#45;&gt;c</title>
<path fill="none" stroke="black" d="M770.98,-282.48C759.16,-288.75 747.41,-296.21 737.5,-304.81 723.49,-316.98 728.41,-327.62 714,-339.31 704.26,-347.22 693.32,-354.2 681.93,-360.34"/>
<polygon fill="black" stroke="black" points="680.47,-357.15 673.17,-364.83 683.67,-363.38 680.47,-357.15"/>
<text text-anchor="middle" x="759.75" y="-317.39" font-family="Times,serif" font-size="14.00">c6|m4</text>
</g>
<!-- fbno&#45;&gt;spno -->
<g id="edge12" class="edge">
<title>fbno&#45;&gt;spno</title>
<path fill="none" stroke="black" d="M226.45,-172.51C199.95,-210.72 161.12,-280.96 184,-339.31 206.68,-397.14 227.53,-407.05 279,-441.81 367.94,-501.89 484.85,-542.03 566.41,-564.98"/>
<polygon fill="black" stroke="black" points="565.14,-568.26 575.71,-567.56 567.01,-561.51 565.14,-568.26"/>
<text text-anchor="start" x="184" y="-326.01" font-family="Times,serif" font-size="14.00">c4|</text>
<text text-anchor="middle" x="199" y="-308.76" font-family="Times,serif" font-size="14.00">c11|</text>
</g>
<!-- fbno&#45;&gt;fbos -->
<g id="edge11" class="edge">
<title>fbno&#45;&gt;fbos</title>
<path fill="none" stroke="black" d="M243.27,-113.15C242.75,-101.64 243.92,-88.67 249.5,-78.1 252.44,-72.53 256.37,-67.46 260.85,-62.9"/>
<polygon fill="black" stroke="black" points="263.19,-65.51 268.29,-56.22 258.51,-60.3 263.19,-65.51"/>
<text text-anchor="middle" x="271.75" y="-82.05" font-family="Times,serif" font-size="14.00">c1|m1</text>
</g>
<!-- fbno&#45;&gt;c -->
<g id="edge16" class="edge">
<title>fbno&#45;&gt;c</title>
<path fill="none" stroke="black" d="M280.98,-170.81C300.83,-186.82 326.52,-207.75 349,-226.71 407.17,-275.78 417.18,-293.57 478,-339.31 484.37,-344.1 491.12,-348.91 497.95,-353.61"/>
<polygon fill="black" stroke="black" points="495.8,-356.38 506.05,-359.08 499.72,-350.58 495.8,-356.38"/>
<text text-anchor="middle" x="436.75" y="-252.09" font-family="Times,serif" font-size="14.00">c6|m4</text>
</g>
<!-- fbos&#45;&gt;spos -->
<g id="edge14" class="edge">
<title>fbos&#45;&gt;spos</title>
<path fill="none" stroke="black" d="M241.15,-42.06C148.04,-58.06 0,-91.51 0,-142.41 0,-590.81 0,-590.81 0,-590.81 0,-708.95 366.96,-798.88 554.87,-837.19"/>
<polygon fill="black" stroke="black" points="553.91,-840.56 564.4,-839.11 555.29,-833.7 553.91,-840.56"/>
<text text-anchor="start" x="0" y="-326.01" font-family="Times,serif" font-size="14.00">c4|</text>
<text text-anchor="middle" x="15" y="-308.76" font-family="Times,serif" font-size="14.00">c11|</text>
</g>
<!-- fbos&#45;&gt;fbno -->
<g id="edge13" class="edge">
<title>fbos&#45;&gt;fbno</title>
<path fill="none" stroke="black" d="M307.89,-60.4C304.39,-71.81 299.5,-84.67 293,-95.35 290.69,-99.16 288.02,-102.9 285.17,-106.52"/>
<polygon fill="black" stroke="black" points="282.57,-104.17 278.75,-114.05 287.9,-108.71 282.57,-104.17"/>
<text text-anchor="middle" x="337.25" y="-82.05" font-family="Times,serif" font-size="14.00">c2|m2,m3</text>
</g>
<!-- fbos&#45;&gt;c -->
<g id="edge15" class="edge">
<title>fbos&#45;&gt;c</title>
<path fill="none" stroke="black" d="M353.02,-56.88C361.1,-63.3 369.23,-70.52 376,-78.1 415.89,-122.76 498.75,-268.95 542.14,-347.52"/>
<polygon fill="black" stroke="black" points="538.86,-348.83 546.76,-355.9 544.99,-345.45 538.86,-348.83"/>
<text text-anchor="middle" x="484.75" y="-195.41" font-family="Times,serif" font-size="14.00">c6|m4</text>
</g>
<!-- c&#45;&gt;spno -->
<g id="edge26" class="edge">
<title>c&#45;&gt;spno</title>
<path fill="none" stroke="black" d="M562.92,-442C562.44,-453.64 563.42,-466.1 567.5,-477.06 578.34,-506.2 600.57,-532.81 620.96,-552.75"/>
<polygon fill="black" stroke="black" points="618.49,-555.23 628.16,-559.56 623.3,-550.15 618.49,-555.23"/>
<text text-anchor="middle" x="603.25" y="-463.76" font-family="Times,serif" font-size="14.00">c7|m2,m3</text>
</g>
<!-- c&#45;&gt;mpno -->
<g id="edge25" class="edge">
<title>c&#45;&gt;mpno</title>
<path fill="none" stroke="black" d="M626.62,-359.3C633.9,-353.05 640.92,-346.32 647,-339.31 658.54,-326.01 652.65,-315.69 666.5,-304.81 677.97,-295.8 704.69,-286.86 733.44,-279.23"/>
<polygon fill="black" stroke="black" points="734.26,-282.63 743.07,-276.75 732.51,-275.85 734.26,-282.63"/>
<text text-anchor="middle" x="688.75" y="-317.39" font-family="Times,serif" font-size="14.00">c7|m2</text>
</g>
<!-- c&#45;&gt;fbno -->
<g id="edge28" class="edge">
<title>c&#45;&gt;fbno</title>
<path fill="none" stroke="black" d="M469.41,-365.24C376.05,-334.09 250.94,-291.64 247.5,-286.81 226.65,-257.52 229.65,-215.56 236.13,-184.77"/>
<polygon fill="black" stroke="black" points="239.54,-185.57 238.4,-175.04 232.72,-183.98 239.54,-185.57"/>
<text text-anchor="middle" x="296.75" y="-252.09" font-family="Times,serif" font-size="14.00">c7|m2,m3,m6</text>
</g>
<!-- d -->
<g id="node8" class="node">
<title>d</title>
<ellipse fill="none" stroke="black" cx="570" cy="-256.76" rx="50.16" ry="18"/>
<text text-anchor="middle" x="570" y="-252.09" font-family="Times,serif" font-size="14.00">Deleted</text>
</g>
<!-- c&#45;&gt;d -->
<g id="edge27" class="edge">
<title>c&#45;&gt;d</title>
<path fill="none" stroke="black" d="M570,-357.08C570,-334.4 570,-306.88 570,-286.56"/>
<polygon fill="black" stroke="black" points="573.5,-286.75 570,-276.75 566.5,-286.75 573.5,-286.75"/>
<text text-anchor="middle" x="580.5" y="-317.39" font-family="Times,serif" font-size="14.00">c7|</text>
</g>
<!-- i -->
<g id="node9" class="node">
<title>i</title>
<ellipse fill="none" stroke="black" cx="936" cy="-1101.19" rx="28.59" ry="18"/>
<text text-anchor="middle" x="936" y="-1096.51" font-family="Times,serif" font-size="14.00">Init</text>
</g>
<!-- i&#45;&gt;spos -->
<g id="edge29" class="edge">
<title>i&#45;&gt;spos</title>
<path fill="none" stroke="black" d="M919.74,-1085.85C877.75,-1048.82 764.71,-949.13 703.58,-895.22"/>
<polygon fill="black" stroke="black" points="706.26,-892.92 696.44,-888.93 701.63,-898.17 706.26,-892.92"/>
<text text-anchor="middle" x="853.75" y="-1001.01" font-family="Times,serif" font-size="14.00">c5|m5</text>
</g>
<!-- i&#45;&gt;spno -->
<g id="edge30" class="edge">
<title>i&#45;&gt;spno</title>
<path fill="none" stroke="black" d="M934.73,-1082.89C929.99,-1028.11 909.63,-855.21 835,-737.81 805.28,-691.06 756.17,-651.08 718.18,-624.67"/>
<polygon fill="black" stroke="black" points="720.26,-621.85 710.03,-619.1 716.32,-627.63 720.26,-621.85"/>
<text text-anchor="middle" x="942.75" y="-853.76" font-family="Times,serif" font-size="14.00">c5|m5</text>
</g>
<!-- i&#45;&gt;mpos -->
<g id="edge31" class="edge">
<title>i&#45;&gt;mpos</title>
<path fill="none" stroke="black" d="M950.57,-1085.31C983.93,-1049.6 1063,-954.89 1063,-859.44 1063,-859.44 1063,-859.44 1063,-255.76 1063,-216.9 967.19,-185.06 888.88,-165.53"/>
<polygon fill="black" stroke="black" points="889.98,-162.19 879.43,-163.21 888.31,-168.99 889.98,-162.19"/>
<text text-anchor="middle" x="1084.75" y="-463.76" font-family="Times,serif" font-size="14.00">c5|m5</text>
</g>
<!-- i&#45;&gt;mpno -->
<g id="edge32" class="edge">
<title>i&#45;&gt;mpno</title>
<path fill="none" stroke="black" d="M941.65,-1083.17C949.09,-1059.94 961.94,-1016.86 968,-979.06 973.47,-944.91 1017.08,-387.39 1000,-357.31 981.26,-324.33 946.8,-301.12 914.02,-285.46"/>
<polygon fill="black" stroke="black" points="915.85,-282.45 905.3,-281.47 912.94,-288.81 915.85,-282.45"/>
<text text-anchor="middle" x="1023.75" y="-585.14" font-family="Times,serif" font-size="14.00">c5|m5</text>
</g>
<!-- i&#45;&gt;fbno -->
<g id="edge33" class="edge">
<title>i&#45;&gt;fbno</title>
<path fill="none" stroke="black" d="M907.36,-1098.79C754.86,-1090.57 45,-1042.5 45,-859.44 45,-859.44 45,-859.44 45,-255.76 45,-198.2 108.52,-170.19 164.5,-156.68"/>
<polygon fill="black" stroke="black" points="165.12,-160.13 174.1,-154.51 163.57,-153.31 165.12,-160.13"/>
<text text-anchor="middle" x="93.75" y="-463.76" font-family="Times,serif" font-size="14.00">c5|m3,m5,m6</text>
</g>
<!-- i&#45;&gt;fbos -->
<g id="edge34" class="edge">
<title>i&#45;&gt;fbos</title>
<path fill="none" stroke="black" d="M949.29,-1084.94C961.98,-1070.71 981.95,-1049.2 1001,-1032.31 1010.98,-1023.47 1014.94,-1023.07 1025,-1014.31 1041.65,-999.82 1046.99,-996.9 1060,-979.06 1095.28,-930.67 1122,-919.32 1122,-859.44 1122,-859.44 1122,-859.44 1122,-142.41 1122,-70.84 617.55,-42.83 406.31,-34.24"/>
<polygon fill="black" stroke="black" points="406.6,-30.75 396.47,-33.85 406.32,-37.74 406.6,-30.75"/>
<text text-anchor="middle" x="1157.25" y="-394.89" font-family="Times,serif" font-size="14.00">c5|m5,m6</text>
</g>
<!-- condition -->
<g id="node10" class="node">
<title>condition</title>
<polygon fill="none" stroke="black" points="1177.38,-738.31 1177.38,-978.56 1402.62,-978.56 1402.62,-738.31 1177.38,-738.31"/>
<text text-anchor="middle" x="1290" y="-961.26" font-family="Times,serif" font-size="14.00">Condition</text>
<polyline fill="none" stroke="black" points="1177.38,-953.31 1402.62,-953.31"/>
<text text-anchor="start" x="1185.38" y="-936.01" font-family="Times,serif" font-size="14.00">c1 Organizer set</text>
<text text-anchor="start" x="1185.38" y="-918.76" font-family="Times,serif" font-size="14.00">c2 Organizer clear</text>
<text text-anchor="start" x="1185.38" y="-901.51" font-family="Times,serif" font-size="14.00">c3 Participant added</text>
<text text-anchor="start" x="1185.38" y="-884.26" font-family="Times,serif" font-size="14.00">c4 Participant removed</text>
<text text-anchor="start" x="1185.38" y="-867.01" font-family="Times,serif" font-size="14.00">c5 New event created</text>
<text text-anchor="start" x="1185.38" y="-849.76" font-family="Times,serif" font-size="14.00">c6 Event cancled</text>
<text text-anchor="start" x="1185.38" y="-832.51" font-family="Times,serif" font-size="14.00">c7 Event cancle undone</text>
<text text-anchor="start" x="1185.38" y="-815.26" font-family="Times,serif" font-size="14.00">c8 Event deleted</text>
<text text-anchor="start" x="1185.38" y="-798.01" font-family="Times,serif" font-size="14.00">c9 pₘᵢₙ increased to pₘᵢₙ&gt;p</text>
<text text-anchor="start" x="1185.38" y="-780.76" font-family="Times,serif" font-size="14.00">c10 pₘᵢₙ decreased to pₘᵢₙ≤p</text>
<text text-anchor="start" x="1185.38" y="-763.51" font-family="Times,serif" font-size="14.00">c11 pₘₐₓ increased to pₘₐₓ&gt; p</text>
<text text-anchor="start" x="1185.38" y="-746.26" font-family="Times,serif" font-size="14.00">c12 pₘₐₓ decreased to pₘₐₓ≤p</text>
</g>
<!-- participants -->
<g id="node12" class="node">
<title>participants</title>
<polygon fill="none" stroke="black" points="1202.5,-495.56 1202.5,-684.06 1377.5,-684.06 1377.5,-495.56 1202.5,-495.56"/>
<text text-anchor="start" x="1210.5" y="-666.76" font-family="Times,serif" font-size="14.00">Participants p</text>
<text text-anchor="middle" x="1290" y="-649.51" font-family="Times,serif" font-size="14.00">p≥0</text>
<text text-anchor="middle" x="1290" y="-632.26" font-family="Times,serif" font-size="14.00">0≤pₘᵢₙ≤pₘₐₓ</text>
<polyline fill="none" stroke="black" points="1202.5,-624.31 1377.5,-624.31"/>
<text text-anchor="start" x="1210.5" y="-607.01" font-family="Times,serif" font-size="14.00">Missing participants</text>
<text text-anchor="middle" x="1290" y="-589.76" font-family="Times,serif" font-size="14.00">p&lt;pₘᵢₙ</text>
<text text-anchor="start" x="1210.5" y="-572.51" font-family="Times,serif" font-size="14.00">Sufficient participants</text>
<text text-anchor="middle" x="1290" y="-555.26" font-family="Times,serif" font-size="14.00">p≥pₘᵢₙ</text>
<text text-anchor="middle" x="1290" y="-538.01" font-family="Times,serif" font-size="14.00">p&lt;pₘₐₓ</text>
<text text-anchor="start" x="1210.5" y="-520.76" font-family="Times,serif" font-size="14.00">Fully booked</text>
<text text-anchor="middle" x="1290" y="-503.51" font-family="Times,serif" font-size="14.00">p≥pₘₐₓ</text>
</g>
<!-- condition&#45;&gt;participants -->
<!-- mail -->
<g id="node11" class="node">
<title>mail</title>
<polygon fill="none" stroke="black" points="1010.12,-1032.81 1010.12,-1169.56 1569.88,-1169.56 1569.88,-1032.81 1010.12,-1032.81"/>
<text text-anchor="middle" x="1290" y="-1152.26" font-family="Times,serif" font-size="14.00">Mail messages</text>
<polyline fill="none" stroke="black" points="1010.12,-1144.31 1569.88,-1144.31"/>
<text text-anchor="start" x="1018.12" y="-1127.01" font-family="Times,serif" font-size="14.00">m1 &#39;Confirmed open&#39; to all participants and organizer of event</text>
<text text-anchor="start" x="1018.12" y="-1109.76" font-family="Times,serif" font-size="14.00">m2 &#39;Pending if open&#39; to all participants and organizer of event&#39;</text>
<text text-anchor="start" x="1018.12" y="-1092.51" font-family="Times,serif" font-size="14.00">m3 &#39;Event with sufficient participants is missing organizer&#39; to all organizers</text>
<text text-anchor="start" x="1018.12" y="-1075.26" font-family="Times,serif" font-size="14.00">m4 &#39;Cancled&#39; to all participants and organizer of event</text>
<text text-anchor="start" x="1018.12" y="-1058.01" font-family="Times,serif" font-size="14.00">m5 &#39;New event&#39; to all accounts</text>
<text text-anchor="start" x="1018.12" y="-1040.76" font-family="Times,serif" font-size="14.00">m6 &#39;Fully booked&#39; to all organizers</text>
</g>
<!-- mail&#45;&gt;condition -->
</g>
</svg>
